<svg width="113" height="53" viewBox="0 0 113 53" fill="none" xmlns="http://www.w3.org/2000/svg">
    <path d="M7.99191 24.48C3.23991 24.48 1.25991 21.348 1.25991 17.496V6.012H6.62391V16.416C6.62391 18.936 7.48791 19.836 10.1879 19.836C12.7799 19.836 13.8959 19.008 13.8959 16.272V6.012H19.2599V24.12H14.2559V20.952H14.0759C13.0679 23.04 11.1599 24.48 7.99191 24.48ZM28.6528 24.48C22.9648 24.48 20.1928 22.356 20.1928 17.964V17.856H25.3408V18.612C25.3408 19.944 26.1328 20.232 28.7608 20.232C30.9568 20.232 31.3168 19.908 31.3168 19.008C31.3168 18.036 30.8128 17.82 28.4008 17.388L25.6648 16.884C22.1008 16.236 20.1568 14.724 20.1568 11.376C20.1568 8.028 22.8928 5.652 28.0408 5.652C32.4688 5.652 35.8528 7.74 35.8528 11.808V12.312H30.7048V11.808C30.7048 10.62 30.2008 9.972 27.8968 9.972C25.7368 9.972 25.2328 10.44 25.2328 11.304C25.2328 12.168 25.5568 12.42 27.7168 12.852L31.0288 13.536C34.8448 14.256 36.4288 15.984 36.4288 18.936C36.4288 22.32 33.6568 24.48 28.6528 24.48ZM42.3311 24.12H36.9671V2.38419e-07H42.3311V8.82H42.5471C43.5191 7.128 45.4991 5.652 48.3791 5.652C53.0591 5.652 55.0031 8.784 55.0031 12.636V24.12H49.6031V13.716C49.6031 11.196 48.7751 10.296 46.0391 10.296C43.4471 10.296 42.3311 11.16 42.3311 13.896V24.12ZM61.7304 24.12H56.3664V6.012H61.3704V9.18H61.5864C62.5584 7.128 64.5024 5.652 67.6704 5.652C72.3864 5.652 74.4024 8.784 74.4024 12.636V24.12H69.0024V13.716C69.0024 11.196 68.1744 10.296 65.4384 10.296C62.8464 10.296 61.7304 11.124 61.7304 13.86V24.12ZM80.6993 24.48C77.4953 24.48 75.0113 22.788 75.0113 19.512C75.0113 16.704 77.0273 14.976 80.7713 14.4L86.9633 13.464V12.888C86.9633 10.764 85.8113 10.368 83.6873 10.368C81.4913 10.368 80.6273 10.98 80.6273 12.816V13.212H75.4793V12.816C75.4793 8.496 78.8273 5.652 83.9393 5.652C89.2673 5.652 92.0753 8.568 92.0753 13.392V24.12H87.0713V21.672H86.8553C85.8833 23.004 84.0473 24.48 80.6993 24.48ZM80.1593 19.08C80.1593 20.052 80.9153 20.376 82.4993 20.376C84.6953 20.376 86.9633 19.8 86.9633 16.992L81.7793 17.784C80.6633 17.964 80.1593 18.324 80.1593 19.08ZM5.14791 52.24C3.92391 52.24 2.59191 52.024 1.83591 51.844V47.38H4.85991C6.22791 47.38 6.73191 47.2 7.27191 46.048L7.59591 45.364L-8.59238e-05 28.012H6.01191L8.96391 35.572L10.2599 39.064H10.6559L11.7719 35.572L14.3279 28.012H20.3399L12.2759 47.38C10.7279 51.088 8.71191 52.24 5.14791 52.24ZM24.2946 46.48C21.0906 46.48 18.6066 44.788 18.6066 41.512C18.6066 38.704 20.6226 36.976 24.3666 36.4L30.5586 35.464V34.888C30.5586 32.764 29.4066 32.368 27.2826 32.368C25.0866 32.368 24.2226 32.98 24.2226 34.816V35.212H19.0746V34.816C19.0746 30.496 22.4226 27.652 27.5346 27.652C32.8626 27.652 35.6706 30.568 35.6706 35.392V46.12H30.6666V43.672H30.4506C29.4786 45.004 27.6426 46.48 24.2946 46.48ZM23.7546 41.08C23.7546 42.052 24.5106 42.376 26.0946 42.376C28.2906 42.376 30.5586 41.8 30.5586 38.992L25.3746 39.784C24.2586 39.964 23.7546 40.324 23.7546 41.08ZM44.1311 46.48C39.0551 46.48 36.3191 42.772 36.3191 37.084C36.3191 31.36 39.0191 27.652 43.9871 27.652C46.7591 27.652 48.8831 28.732 49.8191 30.676H49.9991V28.012H55.0031V52.168H49.6391V43.744H49.4231C48.5951 45.292 46.7951 46.48 44.1311 46.48ZM41.6831 37.084C41.6831 40.36 42.5471 41.872 45.6791 41.872C48.2351 41.872 49.6391 40.972 49.6391 38.524V35.608C49.6391 33.16 48.2351 32.26 45.6791 32.26C42.5471 32.26 41.6831 33.772 41.6831 37.084ZM64.9712 46.48C59.1392 46.48 55.6832 42.808 55.6832 37.084C55.6832 31.324 59.1392 27.652 64.9712 27.652C70.7672 27.652 74.1512 31.324 74.1512 37.084C74.1512 42.808 70.7672 46.48 64.9712 46.48ZM64.9712 41.728C67.8872 41.728 68.8952 40.576 68.8952 37.084C68.8952 33.556 67.8872 32.404 64.9712 32.404C62.0192 32.404 61.0112 33.556 61.0112 37.084C61.0112 40.576 62.0192 41.728 64.9712 41.728ZM83.6673 46.48C77.8353 46.48 74.3793 42.808 74.3793 37.084C74.3793 31.324 77.8353 27.652 83.6673 27.652C89.4633 27.652 92.8473 31.324 92.8473 37.084C92.8473 42.808 89.4633 46.48 83.6673 46.48ZM83.6673 41.728C86.5833 41.728 87.5913 40.576 87.5913 37.084C87.5913 33.556 86.5833 32.404 83.6673 32.404C80.7153 32.404 79.7073 33.556 79.7073 37.084C79.7073 40.576 80.7153 41.728 83.6673 41.728ZM98.5516 46.12H93.5476V22H98.9116V30.532H99.1276C99.9556 29.02 101.9 27.652 104.636 27.652C109.604 27.652 112.232 31.36 112.232 37.084C112.232 42.772 109.604 46.48 104.672 46.48C101.864 46.48 99.7036 45.4 98.7316 43.456H98.5516V46.12ZM98.9116 38.524C98.9116 40.972 100.352 41.872 102.908 41.872C106.004 41.872 106.868 40.36 106.868 37.084C106.868 33.772 106.04 32.26 102.908 32.26C100.352 32.26 98.9116 33.16 98.9116 35.608V38.524Z" fill="white"/>
</svg>